<svg xmlns="http://www.w3.org/2000/svg" viewBox="0 0 1600 1000" role="img" aria-label="Temporary painterly map reference placeholder">
  <defs>
    <linearGradient id="trad" x1="0" x2="1" y1="0" y2="1">
      <stop offset="0" stop-color="#211316"/>
      <stop offset="0.45" stop-color="#6d3727"/>
      <stop offset="1" stop-color="#1b171c"/>
    </linearGradient>
    <linearGradient id="regen" x1="0" x2="1" y1="0" y2="1">
      <stop offset="0" stop-color="#263a2b"/>
      <stop offset="0.45" stop-color="#5f8f4f"/>
      <stop offset="1" stop-color="#132519"/>
    </linearGradient>
    <filter id="rough">
      <feTurbulence baseFrequency="0.018" numOctaves="3" seed="7" type="fractalNoise"/>
      <feDisplacementMap in="SourceGraphic" scale="18"/>
    </filter>
  </defs>
  <rect width="1600" height="1000" fill="#090a0d"/>
  <path d="M0 0h810c-60 160-85 330-45 500 35 150-10 310 35 500H0z" fill="url(#trad)"/>
  <path d="M760 0h840v1000H780c60-190 25-360 60-520 34-156-10-310-80-480z" fill="url(#regen)"/>
  <g filter="url(#rough)" opacity="0.9">
    <path d="M50 780c170-80 300-35 470-100 95-37 180 10 275-55v250H50z" fill="#2a1716"/>
    <path d="M865 790c105-90 250-70 365-135 115-64 210-45 320-92v310H865z" fill="#19351f"/>
    <path d="M160 570c70-70 130-70 195-25 80 55 142 15 205 70" fill="none" stroke="#f06d45" stroke-width="18" opacity="0.45"/>
    <path d="M930 610c130-150 255-110 360-170 90-52 165-22 235-95" fill="none" stroke="#96d66f" stroke-width="20" opacity="0.48"/>
  </g>
  <g fill="none" stroke-linecap="round" opacity="0.65">
    <path d="M160 840c60-170 40-270 90-390" stroke="#120c0d" stroke-width="16"/>
    <path d="M310 860c20-180 85-240 80-380" stroke="#120c0d" stroke-width="12"/>
    <path d="M530 860c-10-125 20-240 80-345" stroke="#120c0d" stroke-width="12"/>
    <path d="M1060 870c0-190 25-320 92-500" stroke="#17321c" stroke-width="18"/>
    <path d="M1190 865c50-180 115-285 220-425" stroke="#17321c" stroke-width="14"/>
    <path d="M1340 880c-35-170 20-300 110-470" stroke="#17321c" stroke-width="15"/>
  </g>
  <g opacity="0.85">
    <circle cx="250" cy="350" r="52" fill="#2e1d21" stroke="#ee784a" stroke-width="6"/>
    <rect x="430" y="315" width="180" height="120" rx="18" fill="#3a2423" stroke="#ee784a" stroke-width="5"/>
    <path d="M920 360c60-95 135-110 218-36 82-60 165-48 225 40 72-25 135 20 160 95" fill="none" stroke="#a5e077" stroke-width="18"/>
    <circle cx="1110" cy="520" r="55" fill="#4f8c49" stroke="#c8f19b" stroke-width="6"/>
    <circle cx="1280" cy="610" r="45" fill="#274f31" stroke="#9adb75" stroke-width="5"/>
  </g>
  <path d="M800 0c-65 215 70 355-7 520-45 98 25 260 7 480" fill="none" stroke="#f0c95a" stroke-width="7" opacity="0.92"/>
  <text x="90" y="105" fill="#f3ead8" font-size="38" font-family="Georgia, serif">extractive mass</text>
  <text x="990" y="105" fill="#f3ead8" font-size="38" font-family="Georgia, serif">regenerative museum</text>
  <text x="800" y="950" text-anchor="middle" fill="#f0c95a" font-size="24" font-family="monospace">replace this SVG with Serena's layered artwork</text>
</svg>
