<svg xmlns="http://www.w3.org/2000/svg" viewBox="0 0 1600 1000" role="img" aria-label="Temporary MAP-derived base. Replace with Serena MAP final asset.">
  <defs>
    <linearGradient id="extractive" x1="0" y1="0" x2="1" y2="1">
      <stop offset="0" stop-color="#1b1013"/>
      <stop offset="0.42" stop-color="#5e2f26"/>
      <stop offset="1" stop-color="#130e12"/>
    </linearGradient>
    <linearGradient id="regen" x1="0" y1="0" x2="1" y2="1">
      <stop offset="0" stop-color="#142117"/>
      <stop offset="0.48" stop-color="#5d884e"/>
      <stop offset="1" stop-color="#122516"/>
    </linearGradient>
    <linearGradient id="river" x1="0" y1="0" x2="0" y2="1">
      <stop offset="0" stop-color="#d9f4e7" stop-opacity="0.65"/>
      <stop offset="0.45" stop-color="#5daeb0" stop-opacity="0.82"/>
      <stop offset="1" stop-color="#2b6c76" stop-opacity="0.9"/>
    </linearGradient>
    <filter id="roughen">
      <feTurbulence type="fractalNoise" baseFrequency="0.018" numOctaves="4" seed="22"/>
      <feDisplacementMap in="SourceGraphic" scale="16"/>
    </filter>
    <filter id="grain">
      <feTurbulence type="fractalNoise" baseFrequency="0.65" numOctaves="3" seed="12"/>
      <feColorMatrix type="saturate" values="0"/>
      <feComponentTransfer>
        <feFuncA type="table" tableValues="0 0.12"/>
      </feComponentTransfer>
    </filter>
  </defs>

  <rect width="1600" height="1000" fill="#090a0d"/>
  <path d="M0 0h740c-40 130-75 245-42 380 42 172 2 270 65 430 20 52 35 112 37 190H0z" fill="url(#extractive)"/>
  <path d="M720 0h880v1000H810c-25-120-72-235-40-392 30-148-8-275-24-388-12-83-18-153-26-220z" fill="url(#regen)"/>

  <g filter="url(#roughen)" opacity="0.88">
    <path d="M55 802c135-78 255-48 380-98 110-45 205-8 335-105v270H55z" fill="#2b1715"/>
    <path d="M872 805c120-100 252-70 390-145 100-55 210-60 300-105v325H872z" fill="#16321d"/>
    <path d="M110 525c65-82 140-92 228-36 80 50 150 18 225 75" fill="none" stroke="#df7047" stroke-width="16" opacity="0.48"/>
    <path d="M938 594c135-135 245-110 350-170 96-54 175-28 248-104" fill="none" stroke="#9ed66b" stroke-width="18" opacity="0.52"/>
  </g>

  <g opacity="0.82">
    <circle cx="258" cy="365" r="58" fill="#2a1b1f" stroke="#ef764b" stroke-width="6"/>
    <rect x="420" y="330" width="172" height="112" rx="18" fill="#35201e" stroke="#ef764b" stroke-width="5"/>
    <path d="M175 700l130-70 170 40 120-80" fill="none" stroke="#100b0c" stroke-width="20" stroke-linecap="round"/>
    <path d="M1020 372c55-95 135-105 215-34 82-58 164-45 232 44" fill="none" stroke="#b7ec83" stroke-width="18" stroke-linecap="round"/>
    <circle cx="1106" cy="536" r="55" fill="#4f8f49" stroke="#c9f49b" stroke-width="6"/>
    <circle cx="1285" cy="635" r="44" fill="#254e2f" stroke="#99dd74" stroke-width="5"/>
  </g>

  <g fill="none" stroke-linecap="round" opacity="0.72">
    <path d="M160 850c75-175 50-305 104-430" stroke="#0d090a" stroke-width="14"/>
    <path d="M330 870c20-180 90-255 82-390" stroke="#0d090a" stroke-width="11"/>
    <path d="M555 872c-15-128 28-245 83-350" stroke="#0d090a" stroke-width="11"/>
    <path d="M1048 880c-5-192 36-330 96-505" stroke="#153119" stroke-width="17"/>
    <path d="M1215 870c50-176 112-290 222-430" stroke="#153119" stroke-width="13"/>
    <path d="M1388 888c-40-172 12-312 100-476" stroke="#153119" stroke-width="14"/>
  </g>

  <g id="river-as-border">
    <path d="M760 0c-45 92-58 170-35 255 25 94 82 147 52 250-28 98-112 160-77 292 18 70 78 128 82 203" fill="none" stroke="#0b1b23" stroke-width="72" stroke-linecap="round" opacity="0.5"/>
    <path d="M760 0c-45 92-58 170-35 255 25 94 82 147 52 250-28 98-112 160-77 292 18 70 78 128 82 203" fill="none" stroke="url(#river)" stroke-width="44" stroke-linecap="round" opacity="0.92"/>
    <path d="M760 0c-45 92-58 170-35 255 25 94 82 147 52 250-28 98-112 160-77 292 18 70 78 128 82 203" fill="none" stroke="#f0e3bd" stroke-width="4" stroke-linecap="round" opacity="0.44"/>
  </g>

  <g filter="url(#grain)">
    <rect width="1600" height="1000" fill="#ffffff"/>
  </g>

  <text x="84" y="105" fill="#f3ead8" font-size="34" font-family="Georgia, serif" opacity="0.72">compressed extractive mass</text>
  <text x="980" y="105" fill="#f3ead8" font-size="34" font-family="Georgia, serif" opacity="0.72">regenerative living museum</text>
  <text x="792" y="945" text-anchor="middle" fill="#f0c95a" font-size="22" font-family="monospace" opacity="0.8">temporary MAP scaffold · river is the border</text>
</svg>
